<svg width="157" height="157" viewBox="0 0 157 157" fill="none" xmlns="http://www.w3.org/2000/svg">
<g clip-path="url(#clip0_601_10)">
<path d="M137.375 48.1009V108.899C137.375 109.6 137.188 110.288 136.833 110.892C136.477 111.496 135.966 111.994 135.354 112.334L80.4036 142.857C79.8212 143.18 79.1661 143.349 78.5 143.349C77.8339 143.349 77.1788 143.18 76.5964 142.857L21.6464 112.334C21.0335 111.994 20.5229 111.496 20.1674 110.892C19.8119 110.288 19.6247 109.6 19.625 108.899V48.1009C19.6258 47.4012 19.8137 46.7145 20.1691 46.1118C20.5245 45.5091 21.0345 45.0124 21.6464 44.673L76.5964 14.1431C77.1788 13.82 77.8339 13.6505 78.5 13.6505C79.1661 13.6505 79.8212 13.82 80.4036 14.1431L135.354 44.673C135.965 45.0124 136.476 45.5091 136.831 46.1118C137.186 46.7145 137.374 47.4012 137.375 48.1009Z" stroke="black" stroke-width="8" stroke-linecap="round" stroke-linejoin="round"/>
<path d="M134.104 109.39L80.4035 79.5597C79.8211 79.2367 79.166 79.0672 78.4999 79.0672C77.8339 79.0672 77.1788 79.2367 76.5963 79.5597L22.8958 109.39M23.0789 47.7149L76.5898 77.4403C77.173 77.7645 77.8293 77.9346 78.4967 77.9346C79.164 77.9346 79.8203 77.7645 80.4035 77.4403L134.104 47.6102M78.4999 137.375V19.625" stroke="black" stroke-width="8" stroke-linecap="round" stroke-linejoin="round"/>
</g>
<defs>
<clipPath id="clip0_601_10">
<rect width="157" height="157" fill="white"/>
</clipPath>
</defs>
</svg>
